<?xml version="1.0" standalone="no"?>
<!DOCTYPE svg PUBLIC "-//W3C//DTD SVG 20010904//EN"
 "http://www.w3.org/TR/2001/REC-SVG-20010904/DTD/svg10.dtd">
<svg version="1.0" xmlns="http://www.w3.org/2000/svg"
 width="260.000000pt" height="260.000000pt" viewBox="0 0 260.000000 260.000000"
 preserveAspectRatio="xMidYMid meet">
<metadata>
Created by potrace 1.14, written by Peter Selinger 2001-2017
</metadata>
<g transform="translate(0.000000,260.000000) scale(0.100000,-0.100000)"
fill="#000000" stroke="none">
<path d="M693 2131 c-43 -11 -60 -26 -72 -64 -6 -20 -9 -220 -8 -522 l3 -490
29 -80 c16 -44 37 -95 48 -112 14 -25 16 -33 5 -33 -50 1 -329 85 -399 120
-219 111 -237 239 -52 357 59 37 2 18 -90 -31 -44 -22 -97 -60 -118 -83 -36
-39 -39 -47 -39 -98 0 -51 3 -59 40 -99 22 -24 72 -60 110 -80 128 -68 370
-137 558 -161 45 -6 59 -13 100 -54 74 -75 150 -126 243 -165 250 -103 546
-46 740 141 46 44 47 45 155 58 172 22 251 35 364 62 94 23 214 61 150 48
-183 -37 -567 -91 -578 -80 -2 2 13 32 33 66 21 34 49 96 64 138 l25 76 3 505
c3 488 3 506 -16 537 -29 47 -67 53 -319 53 -239 0 -274 -6 -306 -51 -20 -29
-21 -97 -2 -124 7 -11 46 -76 86 -145 124 -214 134 -231 233 -397 52 -89 98
-172 102 -183 16 -50 -8 -71 -223 -194 -337 -195 -348 -200 -383 -186 -16 7
-34 21 -39 31 -6 11 -10 242 -10 589 0 622 1 611 -57 640 -32 16 -326 24 -380
11z"/>
</g>
</svg>
