<svg xmlns="http://www.w3.org/2000/svg" xmlns:xlink="http://www.w3.org/1999/xlink" preserveAspectRatio="xMidYMid" width="253" height="50" viewBox="0 0 253 50">
  <defs>
    <style>
      .cls-1 {
        fill: #fff;
        fill-rule: evenodd;
      }
    </style>
  </defs>
  <path d="M249.488,32.169 C249.433,31.856 249.350,31.117 249.350,30.435 L249.350,30.264 C248.769,31.600 247.359,32.567 245.533,32.567 C241.523,32.567 238.869,29.355 238.869,25.118 C238.869,21.025 241.468,17.784 245.423,17.784 C247.856,17.784 248.990,19.120 249.322,19.916 L249.322,18.182 L252.889,18.182 L252.889,29.639 C252.889,30.890 252.972,31.856 253.000,32.169 L249.488,32.169 ZM245.976,21.054 C244.012,21.054 242.574,22.560 242.574,25.118 C242.574,27.649 243.985,29.298 245.976,29.298 C247.884,29.298 249.322,27.677 249.322,25.118 C249.322,22.560 247.912,21.054 245.976,21.054 ZM235.500,32.368 C232.845,32.368 231.186,30.747 231.186,28.047 L231.186,21.537 L228.725,21.537 L228.725,18.182 L229.416,18.182 C230.854,18.182 231.518,17.216 231.518,15.964 L231.518,14.003 L234.836,14.003 L234.836,18.182 L237.574,18.182 L237.574,21.537 L234.836,21.537 L234.836,27.393 C234.836,28.615 235.390,29.013 236.441,29.013 C236.883,29.013 237.381,28.956 237.574,28.900 L237.574,32.027 C237.243,32.169 236.579,32.368 235.500,32.368 ZM225.293,23.043 C223.937,23.043 222.887,21.991 222.831,20.626 L222.831,32.169 L219.153,32.169 L219.153,18.182 L222.831,18.182 L222.831,20.428 C222.887,19.063 223.937,17.983 225.293,17.983 C226.675,17.983 227.754,19.092 227.754,20.513 C227.754,21.935 226.675,23.043 225.293,23.043 ZM212.360,30.435 L212.360,30.264 C211.780,31.600 210.369,32.567 208.544,32.567 C204.534,32.567 201.879,29.355 201.879,25.118 C201.879,21.025 204.479,17.784 208.434,17.784 C210.867,17.784 212.001,19.120 212.333,19.916 L212.333,18.182 L215.900,18.182 L215.900,29.639 C215.900,30.890 215.983,31.856 216.011,32.169 L212.499,32.169 C212.443,31.856 212.360,31.117 212.360,30.435 ZM208.987,21.054 C207.023,21.054 205.585,22.560 205.585,25.118 C205.585,27.649 206.995,29.298 208.987,29.298 C210.895,29.298 212.333,27.677 212.333,25.118 C212.333,22.560 210.923,21.054 208.987,21.054 ZM194.285,29.127 C196.166,29.127 197.106,27.848 197.410,26.767 L200.646,27.876 C200.037,30.208 197.908,32.595 194.285,32.595 C190.275,32.595 187.123,29.468 187.123,25.175 C187.123,20.854 190.220,17.755 194.174,17.755 C197.880,17.755 199.982,20.115 200.563,22.475 L197.272,23.612 C196.940,22.447 196.083,21.252 194.257,21.252 C192.377,21.252 190.801,22.645 190.801,25.175 C190.801,27.705 192.405,29.127 194.285,29.127 ZM181.276,30.435 L181.276,30.264 C180.695,31.600 179.285,32.567 177.459,32.567 C173.449,32.567 170.794,29.355 170.794,25.118 C170.794,21.025 173.394,17.784 177.349,17.784 C179.782,17.784 180.916,19.120 181.248,19.916 L181.248,18.182 L184.816,18.182 L184.816,29.639 C184.816,30.890 184.898,31.856 184.926,32.169 L181.414,32.169 C181.359,31.856 181.276,31.117 181.276,30.435 ZM177.902,21.054 C175.938,21.054 174.500,22.560 174.500,25.118 C174.500,27.649 175.911,29.298 177.902,29.298 C179.810,29.298 181.248,27.677 181.248,25.118 C181.248,22.560 179.838,21.054 177.902,21.054 ZM164.906,24.010 C164.906,22.447 164.160,21.224 162.390,21.224 C160.786,21.224 159.845,22.503 159.845,24.124 L159.845,32.169 L156.167,32.169 L156.167,18.182 L159.735,18.182 L159.735,19.916 C160.564,18.467 162.196,17.812 163.662,17.812 C167.036,17.812 168.584,20.286 168.584,23.356 L168.584,32.169 L164.906,32.169 L164.906,24.010 ZM145.971,37.997 C142.237,37.997 139.748,35.609 139.361,32.937 L142.680,32.027 C142.929,33.562 144.118,34.671 145.860,34.671 C148.183,34.671 149.483,33.477 149.483,30.776 L149.483,29.753 C148.930,30.662 147.658,31.543 145.694,31.543 C142.071,31.543 139.361,28.672 139.361,24.749 C139.361,21.054 141.961,17.926 145.694,17.926 C147.851,17.926 149.096,18.893 149.566,19.831 L149.566,18.182 L153.106,18.182 L153.106,30.662 C153.106,34.500 151.087,37.997 145.971,37.997 ZM146.330,21.224 C144.505,21.224 143.067,22.588 143.067,24.749 C143.067,26.938 144.422,28.302 146.330,28.302 C148.211,28.302 149.538,26.910 149.538,24.749 C149.538,22.588 148.100,21.224 146.330,21.224 ZM133.489,30.435 L133.489,30.264 C132.909,31.600 131.498,32.567 129.673,32.567 C125.663,32.567 123.008,29.355 123.008,25.118 C123.008,21.025 125.608,17.784 129.562,17.784 C131.996,17.784 133.130,19.120 133.462,19.916 L133.462,18.182 L137.029,18.182 L137.029,29.639 C137.029,30.890 137.112,31.856 137.140,32.169 L133.628,32.169 C133.572,31.856 133.489,31.117 133.489,30.435 ZM130.116,21.054 C128.152,21.054 126.714,22.560 126.714,25.118 C126.714,27.649 128.124,29.298 130.116,29.298 C132.024,29.298 133.462,27.677 133.462,25.118 C133.462,22.560 132.051,21.054 130.116,21.054 ZM117.200,23.868 C117.200,22.361 116.481,21.224 114.794,21.224 C113.218,21.224 112.278,22.475 112.278,23.981 L112.278,32.169 L108.627,32.169 L108.627,23.868 C108.627,22.361 107.880,21.224 106.221,21.224 C104.617,21.224 103.677,22.447 103.677,23.981 L103.677,32.169 L99.999,32.169 L99.999,18.182 L103.511,18.182 L103.511,19.888 C104.258,18.523 106.000,17.784 107.493,17.784 C109.346,17.784 110.839,18.608 111.531,20.115 C112.609,18.410 114.047,17.784 115.845,17.784 C118.362,17.784 120.768,19.347 120.768,23.100 L120.768,32.169 L117.200,32.169 L117.200,23.868 ZM70.548,7.073 L74.994,-0.002 L74.994,50.000 L70.548,50.000 L70.548,7.073 ZM50.015,32.627 L70.519,-0.002 L74.965,-0.002 L50.015,39.702 L50.015,32.627 ZM50.004,24.896 L50.004,50.000 L45.558,50.000 L45.558,7.073 L50.004,-0.002 L50.004,-0.002 L50.004,18.545 L61.602,-0.002 L65.650,-0.002 L61.602,6.440 L50.004,24.896 ZM25.025,32.627 L45.529,-0.002 L49.975,-0.002 L25.025,39.702 L25.025,32.627 ZM25.005,24.910 L25.005,50.000 L20.559,50.000 L20.559,7.073 L25.005,-0.002 L25.005,-0.002 L25.005,18.559 L36.611,-0.002 L40.659,-0.002 L36.611,6.440 L25.005,24.910 ZM0.026,32.627 L20.530,-0.002 L24.976,-0.002 L0.026,39.702 L0.026,32.627 ZM0.006,24.910 L0.006,18.559 L11.612,-0.002 L15.660,-0.002 L11.612,6.440 L0.006,24.910 ZM16.113,50.000 L12.065,50.000 L12.065,20.590 L16.113,14.148 L16.113,50.000 ZM41.112,50.000 L37.064,50.000 L37.064,20.590 L41.112,14.148 L41.112,50.000 ZM66.102,50.000 L62.054,50.000 L62.054,20.590 L66.102,14.148 L66.102,50.000 Z" class="cls-1"/>
</svg>
